# xmcd
#
# Track frame offsets:
#	150
#	17782
#	34055
#
# Disc length: 669 seconds
#
# Revision: 0
# Processed by: cddbd v1.5.2PL0 Copyright (c) Steve Scherf et al.
# Submitted via: audiograbber 1.83.01
#
DISCID=1b029b03
DTITLE=Rita - Rakkauden Jano [CDS)
DYEAR=1996
DGENRE=Pop
TTITLE0=Rakkauden Jano
TTITLE1=Salaisuudet Sattuu
TTITLE2=Helighetens Smärta
EXTD=TR.
EXTT0=
EXTT1=
EXTT2=
PLAYORDER=
